# xmcd
#
# Track frame offsets: 
#        150
#        17932
#        33721
#        56637
#        78908
#        97830
#        116470
#        139882
#        161000
#        185326
#        201797
#        215371
#        231361
#        254020
#        277295
#        291774
#        309091
#        324161
#
# Disc length: 4646 seconds
#
# Revision: 6
# Processed by: cddbd v1.5.2PL0 Copyright (c) Steve Scherf et al.
# Submitted via: ExactAudioCopyFreeDBPlugin 1.0
#
DISCID=05122412
DTITLE=Tom Jones - The Definitive Tom Jones, 1964-2002
DYEAR=2003
DGENRE=SMB
TTITLE0=A Boy from Nowhere
TTITLE1=Kiss
TTITLE2=Move Closer
TTITLE3=Carrying a Torch
TTITLE4=Gimme Shelter (ft New Model Army)
TTITLE5=If I Only Knew
TTITLE6=Something for Your Head
TTITLE7=A Girl Like You
TTITLE8=Medley:  (Make Me Smile) Come Up and See Me - You Can Leave Yo
TTITLE8=ur Hat On - Land of 1000 Dances (ft Robbie Williams)
TTITLE9=Burning Down the House (ft The Cardigans)
TTITLE10=Mama Told Me Not to Come (ft Stereophonics)
TTITLE11=Sexbomb (ft Mousse T)
TTITLE12=Sometimes We Cry (ft Van Morrison)
TTITLE13=Motherless Child (ft Portishead)
TTITLE14=Black Betty
TTITLE15=The Letter
TTITLE16=Tom Jones International
TTITLE17=Younger Days
EXTD=
EXTT0=
EXTT1=
EXTT2=
EXTT3=
EXTT4=
EXTT5=
EXTT6=
EXTT7=
EXTT8=
EXTT9=
EXTT10=
EXTT11=
EXTT12=
EXTT13=
EXTT14=
EXTT15=
EXTT16=
EXTT17=
PLAYORDER=
